inDegrees=no
num_controls=7
num_derivatives=13
num_iterations=54
num_multipliers=7
num_parameters=0
num_slacks=7
num_states=26
objective=0.396833
objective_accelerations=0.037294
objective_balance=0.004524
objective_effort=0.058994
objective_height=0.288814
objective_ligament=0.007206
solver_duration=765.624646
status=Solve_Succeeded
success=true
DataType=double
version=3
OpenSimVersion=4.5
endheader
time	/jointset/ground_pelvis/pelvis_tilt/value	/jointset/ground_pelvis/pelvis_tx/value	/jointset/ground_pelvis/pelvis_ty/value	/jointset/hip_l/hip_flexion_l/value	/jointset/hip_l/hip_adduction_l/value	/jointset/hip_l/hip_rotation_l/value	/jointset/back/lumbar_extension/value	/jointset/patellofemoral_l/patellar_flexion_l/value	/jointset/knee_l/knee_flexion_l/value	/jointset/knee_l/knee_adduction_l/value	/jointset/knee_l/knee_rotation_l/value	/jointset/ankle_l/ankle_angle_l/value	/jointset/subtalar_l/subtalar_angle_l/value	/jointset/ground_pelvis/pelvis_tilt/speed	/jointset/ground_pelvis/pelvis_tx/speed	/jointset/ground_pelvis/pelvis_ty/speed	/jointset/hip_l/hip_flexion_l/speed	/jointset/hip_l/hip_adduction_l/speed	/jointset/hip_l/hip_rotation_l/speed	/jointset/back/lumbar_extension/speed	/jointset/patellofemoral_l/patellar_flexion_l/speed	/jointset/knee_l/knee_flexion_l/speed	/jointset/knee_l/knee_adduction_l/speed	/jointset/knee_l/knee_rotation_l/speed	/jointset/ankle_l/ankle_angle_l/speed	/jointset/subtalar_l/subtalar_angle_l/speed	/forceset/tau_hip_flexion_l	/forceset/tau_hip_adduction_l	/forceset/tau_hip_rotation_l	/forceset/tau_knee_flexion_l	/forceset/tau_ankle_angle_l	/forceset/tau_subtalar_angle_l	/forceset/tau_lumbar_extension	lambda_cid13_p0	lambda_cid13_p1	lambda_cid13_p2	lambda_cid13_p3	lambda_cid13_p4	lambda_cid13_p5	lambda_cid14_p0	/jointset/ground_pelvis/pelvis_tilt/accel	/jointset/ground_pelvis/pelvis_tx/accel	/jointset/ground_pelvis/pelvis_ty/accel	/jointset/hip_l/hip_flexion_l/accel	/jointset/hip_l/hip_adduction_l/accel	/jointset/hip_l/hip_rotation_l/accel	/jointset/back/lumbar_extension/accel	/jointset/patellofemoral_l/patellar_flexion_l/accel	/jointset/knee_l/knee_flexion_l/accel	/jointset/knee_l/knee_adduction_l/accel	/jointset/knee_l/knee_rotation_l/accel	/jointset/ankle_l/ankle_angle_l/accel	/jointset/subtalar_l/subtalar_angle_l/accel	gamma_cid13_p0	gamma_cid13_p1	gamma_cid13_p2	gamma_cid13_p3	gamma_cid13_p4	gamma_cid13_p5	gamma_cid14_p0
0.5	-0.1196006889863515	-0.08383453522367028	0.6216199629577766	1.521404108723224	-0.3099061770515767	0.01482858921340476	-0.8959888591760031	1.549783242607205	1.549783242607185	0.06949238656074544	-0.1743830666700479	0.262246716228973	0.08240974197128609	-0.02120220518556711	-0.04590568689759585	-0.9484616113267935	2.668715306071165	0.02315807556703764	0.5222314795725318	-0.5552167450025246	2.776574269506238	2.776574269506269	0.5271296773738687	-0.001447160596661616	0.3114460287610032	0.1642416982694781	-0.3920547539886703	-0.001400108577543048	-0.02245123326209284	-0.4094634563745621	0.1212687124115708	0.0316354036298693	0.4526073740646318	-11.59394901335737	-6.911294939351416	-4.832864403089443	-11.75766337059829	-802.1420361257848	-63.25962592787062	-0.04124916911910728	1.383804722283381	1.136351061809739	1.023527809871823	-4.42223610411792	0.1997383683596102	-1.31235950057365	3.189241433804954	-5.920709215243974	-5.920709215244029	-0.7872972092458508	0.02960990918138637	-3.322456063338427	-1.143297634116409	3.905940570054156e-07	-1.720461753473414e-06	-3.081360557037379e-06	-9.270937490203751e-07	-1.881992414974276e-07	-3.656644717282939e-06	2.618805517229556e-07
0.51	-0.1197439263079001	-0.08423768074943733	0.6121889725872054	1.547867679156989	-0.3096649193450486	0.01998177355326632	-0.9013829517567106	1.57725002901978	1.577250029019765	0.0747268782185635	-0.1743970756093562	0.2651949682262836	0.08399421998199719	-0.007494983633107037	-0.03481785900165102	-0.9374752240153575	2.62368611989542	0.02509288547311719	0.5083450517747905	-0.5237518611040871	2.716455340858598	2.716455340858615	0.5197432340942566	-0.001342447191825564	0.2782177005977688	0.1526238182335216	-0.3975938192413239	-0.00309874016541901	-0.02361677256166326	-0.417074022027035	0.1205812079661803	0.03084725653535194	0.4583259783144302	-12.46957629876269	-6.178912401454089	-5.220077010801651	-10.25776709378605	-810.8680265930543	-63.08592865447667	-0.04097784118169422	1.356743543146349	1.080647278033869	1.17534328297276	-4.590123662230041	0.1907234422463027	-1.43571343589065	3.102598373413388	-6.106691709139176	-6.106691709141352	-0.7181067041009139	0.001988721953750393	-3.321062668720918	-1.174913942340013	4.125079713029062e-07	-1.604708165942237e-06	-3.103449248174183e-06	-9.084699990839086e-07	-1.839430039628653e-07	-3.869796980899573e-06	2.982504560756979e-07
0.52	-0.1197515788796459	-0.08453281827133705	0.6028756759079823	1.573871584971396	-0.3094042393113549	0.0249943078118249	-0.9064668981973258	1.604105784741956	1.604105784741959	0.07988674768026027	-0.1744098200814433	0.2678113286467813	0.08546174304154783	0.005914744776164512	-0.02430408612413127	-0.9249228730561707	2.576782382202572	0.02704254099976123	0.4941014633163999	-0.4931875169835916	2.654368131426345	2.654368131426349	0.5122052381433652	-0.001194267154227228	0.2450677133983287	0.1408507080373751	-0.4031328844940227	-0.004797371753310252	-0.02478231186112402	-0.4246845876795001	0.1198937035208025	0.03005910944081927	0.4640445825641903	-13.37668019558928	-5.440489271997778	-5.60886192056349	-8.636934961477728	-819.9761740187547	-62.95747846248432	-0.04072818090358087	1.324306093646094	1.021540058124402	1.336720539421811	-4.797146407538349	0.202707492472599	-1.383791632703507	3.009133478216757	-6.314365372166518	-6.314365372166479	-0.8176077435015824	0.03830323573394379	-3.306787870580115	-1.174343666154529	4.281204852531165e-07	-1.465176950496456e-06	-3.053138304450987e-06	-8.72418991399834e-07	-1.845921457031431e-07	-4.056133509213378e-06	3.331299333648964e-07
0.53	-0.1196268065431833	-0.08472569725574897	0.5936955506534235	1.599397099119317	-0.3091238806170432	0.02986337840101145	-0.9112497990559861	1.630331373029489	1.630331373029485	0.08496989228744431	-0.1744202598328358	0.2700972835883176	0.08681126348557799	0.01897160011162888	-0.01436757155534752	-0.9108589466334888	2.528004796963146	0.02902706870584757	0.479721305913176	-0.4635535127439567	2.59046999178094	2.590469991780963	0.5043266608488394	-0.0008672086042692827	0.2122039944727999	0.1290574748609945	-0.4076325144004547	-0.006810610057581122	-0.02608284595956506	-0.4313742240224543	0.1193881826318324	0.02938225804946597	0.4687423461987944	-14.12803933097275	-4.794871621464655	-5.963200079732769	-7.246193046374039	-827.7520317079749	-62.83473985431148	-0.04045702418772486	1.286186696942672	0.9651573392077377	1.477676390111628	-4.965369746101421	0.1964311030422113	-1.463660115020722	2.916405197828722	-6.469538695478823	-6.469538695476119	-0.7874246573491407	0.03315078729759106	-3.264077631113846	-1.180624371969761	4.30041716241354e-07	-1.311370829613058e-06	-2.917629332354816e-06	-8.238593950251142e-07	-1.801784390306005e-07	-4.099696600641529e-06	3.51108507099934e-07
0.54	-0.1193735033646816	-0.08482212105788403	0.5846633542023706	1.624425376382036	-0.3088236555069967	0.03458894095197371	-0.915741185612054	1.655909579833618	1.655909579833622	0.08997136273469607	-0.1744267802741943	0.2720570185950841	0.08804308935212646	0.03162091318497938	-0.00501304966876435	-0.8953371123539785	2.477335005165439	0.03101582414654992	0.4653998556744001	-0.4348846564646009	2.524891834745475	2.524891834745517	0.4958704061574741	-0.0004104051474757933	0.1798237264442822	0.117311792541017	-0.4121321443069351	-0.00882384836185446	-0.02738338005798962	-0.4380638603654034	0.1188826617428797	0.02870540665811813	0.4734401098333558	-14.91128438506318	-4.144150458451183	-6.317808496220893	-5.721518076017644	-835.917831424657	-62.75337090115875	-0.04017228957785161	1.242797641223714	0.9051415216839752	1.628302110787339	-5.17558771919446	0.2035530393958756	-1.372050199813927	2.816103886161118	-6.650368850178406	-6.650368850178417	-0.933143222869331	0.0642522171011455	-3.210097691178487	-1.164833494874047	4.16815144803579e-07	-1.141771196330594e-06	-2.687858711845992e-06	-7.61460509035212e-07	-1.701632830502565e-07	-3.985297591685553e-06	3.503882088176018e-07
0.55	-0.1189961791532934	-0.08482792432237993	0.575793452507803	1.648937723338541	-0.3085033581905284	0.0391718643201868	-0.9199505380981937	1.680823998832191	1.680823998832183	0.09488528532093428	-0.1744275802844206	0.2736959922496531	0.08915826815648233	0.04373179740843217	0.003754595706841455	-0.8784218504850421	2.424840614345921	0.03304627800645073	0.4511813125341021	-0.4071291422425004	2.457746125596687	2.457746125596715	0.4868333705040462	0.0002898237569868715	0.148111195470287	0.1057698072068924	-0.41553783631614	-0.01102520416541126	-0.02881974330394864	-0.443873136164979	0.1186933959578889	0.02806812848342658	0.4771131983726483	-15.49898396910397	-3.555512022015912	-6.650341964931254	-4.462612164443119	-842.7605695930645	-62.60407521163066	-0.03985968141833657	1.17844461427503	0.84776040030806	1.756311695765112	-5.330389363640506	0.2035383041901107	-1.447107172116361	2.733779968673176	-6.783617851932692	-6.783617851934787	-0.9009393670562723	0.07819579861206317	-3.130807148590085	-1.141540001557092	3.938201997749307e-07	-9.611110285226284e-07	-2.399713183830506e-06	-6.878846786120699e-07	-1.548528865986701e-07	-3.758805187504735e-06	3.383685072961938e-07
